<?xml version="1.0" standalone="no"?>
<!DOCTYPE svg PUBLIC "-//W3C//DTD SVG 20010904//EN"
 "http://www.w3.org/TR/2001/REC-SVG-20010904/DTD/svg10.dtd">
<svg version="1.0" xmlns="http://www.w3.org/2000/svg"
 width="123.000000pt" height="111.000000pt" viewBox="0 0 123.000000 111.000000"
 preserveAspectRatio="xMidYMid meet">

<g transform="translate(0.000000,111.000000) scale(0.100000,-0.100000)"
fill="#000000" stroke="none">
<path d="M325 1029 c-116 -18 -203 -78 -225 -157 -13 -49 -13 -66 4 -107 18
-42 61 -65 124 -65 38 0 53 5 70 23 22 23 31 64 12 52 -6 -4 -22 1 -35 9 -44
29 -22 125 34 156 29 15 110 29 116 19 3 -4 -20 -151 -50 -325 -30 -175 -55
-342 -55 -372 0 -106 51 -162 148 -162 99 0 156 45 238 185 l46 80 -6 -58 c-8
-73 6 -128 43 -169 25 -28 36 -32 93 -36 67 -4 111 10 165 55 35 29 73 94 73
124 0 38 -21 37 -43 0 -24 -41 -79 -73 -119 -69 -54 5 -57 33 -25 216 90 519
91 530 81 559 -12 35 -63 54 -122 46 l-42 -6 0 -54 c0 -124 -86 -418 -170
-582 -64 -125 -111 -181 -151 -181 -56 0 -55 18 12 401 77 436 80 418 -76 424
-44 2 -107 0 -140 -6z"/>
</g>
</svg>
